<!DOCTYPE svg PUBLIC "-//W3C//DTD SVG 1.1//EN" "http://www.w3.org/Graphics/SVG/1.1/DTD/svg11.dtd">
<!-- Uploaded to: SVG Repo, www.svgrepo.com, Transformed by: SVG Repo Mixer Tools -->
<svg width="800px" height="800px" viewBox="-5 0 32 32" version="1.1" xmlns="http://www.w3.org/2000/svg" xmlns:xlink="http://www.w3.org/1999/xlink" xmlns:sketch="http://www.bohemiancoding.com/sketch/ns" fill="#000000" transform="rotate(180)">
<g id="SVGRepo_bgCarrier" stroke-width="0"/>
<g id="SVGRepo_tracerCarrier" stroke-linecap="round" stroke-linejoin="round"/>
<g id="SVGRepo_iconCarrier"> <title>moon</title> <desc>Created with Sketch Beta.</desc> <defs> </defs> <g id="Page-1" stroke="none" stroke-width="1" fill="none" fill-rule="evenodd" sketch:type="MSPage"> <g id="Icon-Set" sketch:type="MSLayerGroup" transform="translate(-573.000000, -827.000000)" fill="#ffffff"> <path d="M587.23,857 C582.287,856.641 575.047,850.732 575.047,843 C575.047,835.269 582.132,829.434 587.23,829 C588.764,828.87 587.953,828.875 589.372,829 C586.035,831.104 582.216,836.962 582.216,843 C582.216,849.038 584.994,854.619 589.372,857 C588.024,857.125 588.698,857.106 587.23,857 L587.23,857 Z M584.256,843 C584.256,836.1 588.735,830.236 595,827.991 C593.243,827.361 591.353,827 589.372,827 C580.33,827 573,834.164 573,843 C573,851.837 580.33,859 589.372,859 C591.353,859 593.243,858.639 595,858.009 C588.735,855.764 584.256,849.901 584.256,843 L584.256,843 Z" id="moon" sketch:type="MSShapeGroup"> </path> </g> </g> </g>
</svg>